<?xml version="1.0" encoding="iso-8859-1"?>
<!-- Generator: Adobe Illustrator 15.1.0, SVG Export Plug-In . SVG Version: 6.00 Build 0)  -->
<!DOCTYPE svg PUBLIC "-//W3C//DTD SVG 1.1//EN" "http://www.w3.org/Graphics/SVG/1.1/DTD/svg11.dtd">
<svg version="1.1" id="Layer_1" xmlns="http://www.w3.org/2000/svg" xmlns:xlink="http://www.w3.org/1999/xlink" x="0px" y="0px"
	 width="150px" height="150px" viewBox="0 0 150 150" style="enable-background:new 0 0 150 150;" xml:space="preserve">
<style type="text/css">
<![CDATA[
	.st0{fill:#4D4D4F;}
	.st1{fill:#808285;}
	.st2{fill:#C4C6C8;}
	.st3{fill:#FFFFFF;}
]]>
</style>
<path id="Bounce-Arrow" class="st2" d="M101.118,103.474H49.882c-0.893,0-1.618-0.725-1.618-1.618V70.035H34.781
	c-0.668,0-1.266-0.409-1.509-1.03c-0.242-0.621-0.079-1.327,0.411-1.778l40.989-37.753c0.62-0.57,1.574-0.57,2.193,0l40.45,37.281
	c0.49,0.452,0.653,1.158,0.411,1.778c-0.243,0.621-0.842,1.029-1.509,1.029h-13.482v32.293
	C102.736,102.749,102.011,103.474,101.118,103.474z M51.5,100.237h48V67.945c0-0.894,0.725-1.618,1.618-1.618h10.959L75.77,32.863
	L38.925,66.799h10.957c0.894,0,1.618,0.724,1.618,1.618V100.237z"/>
<text class="bounce-number" x="58" y="77" font-size="17"></text>
<g id="Badge-Generic_3_">
	<path id="Banner-Back-Right_3_" class="st1" d="M146.734,89.677c-15.058,4.841-29.859,2.755-29.859,2.755v26.1
		c0,0,20.576,0,30.625-5.512c-5.615-4.104-9.475-8.916-9.475-8.916S143.575,98.346,146.734,89.677z"/>
	<path id="Banner-Back-Left_3_" class="st1" d="M3.266,89.677c9.562,3.073,19.021,3.354,24.652,3.15
		c3.236-0.117,5.207-0.396,5.207-0.396v26.1c0,0-20.576,0-30.625-5.512c5.615-4.104,9.475-8.916,9.475-8.916
		S6.424,98.346,3.266,89.677z"/>
	<polygon id="Banner-Mid-Right_3_" class="st0" points="116.875,118.531 132.188,122.702 132.188,96.6 116.875,92.432 	"/>
	<polygon id="Banner-Mid-Left_3_" class="st0" points="33.125,118.531 17.813,122.702 17.813,96.6 28.158,93.783 33.125,92.432
		33.125,105.728 	"/>
	<path id="Ring_3_" class="st2" d="M74.999,121.933c-28.753,0-52.146-23.394-52.146-52.146c0-28.754,23.393-52.147,52.146-52.147
		s52.146,23.393,52.146,52.147C127.146,98.539,103.752,121.933,74.999,121.933z M74.999,22.403
		c-26.126,0-47.382,21.256-47.382,47.383c0,26.128,21.256,47.383,47.382,47.383c26.128,0,47.383-21.255,47.383-47.383
		C122.382,43.659,101.127,22.403,74.999,22.403z"/>
	<g id="Banner-Front_3_">
		<path class="st2" d="M17.813,96.6c0,0,28.84,2.761,57.188,2.761c26.009,0,57.188-2.761,57.188-2.761v26.103
			c0,0-34.186,2.757-57.188,2.757c-24.999,0-57.188-2.757-57.188-2.757V96.6z"/>
	</g>
	<g>
		<path class="st3" d="M37.743,119.331v-14.219h4.648c1.543,0,2.704,0.319,3.481,0.957s1.167,1.582,1.167,2.832
			c0,0.664-0.189,1.251-0.566,1.763s-0.892,0.906-1.543,1.187c0.768,0.215,1.375,0.624,1.821,1.226s0.669,1.32,0.669,2.153
			c0,1.276-0.414,2.278-1.24,3.008s-1.996,1.094-3.506,1.094H37.743z M39.618,111.177h2.832c0.82,0,1.476-0.206,1.968-0.616
			c0.492-0.411,0.737-0.969,0.737-1.674c0-0.783-0.228-1.352-0.684-1.707c-0.456-0.356-1.149-0.534-2.08-0.534h-2.773V111.177z
			 M39.618,112.681v5.117h3.096c0.873,0,1.561-0.226,2.065-0.679s0.757-1.076,0.757-1.87c0-1.712-0.931-2.568-2.793-2.568H39.618z"
			/>
		<path class="st3" d="M61.132,112.681c0,1.394-0.234,2.608-0.703,3.647s-1.133,1.831-1.992,2.378s-1.862,0.82-3.008,0.82
			c-1.12,0-2.113-0.274-2.979-0.825s-1.538-1.334-2.017-2.354s-0.724-2.199-0.737-3.54v-1.025c0-1.367,0.238-2.575,0.713-3.623
			s1.147-1.851,2.017-2.407s1.864-0.835,2.983-0.835c1.139,0,2.144,0.274,3.013,0.825s1.538,1.348,2.007,2.393
			s0.703,2.261,0.703,3.647V112.681z M59.267,111.763c0-1.687-0.338-2.979-1.016-3.882s-1.625-1.353-2.842-1.353
			c-1.185,0-2.118,0.45-2.798,1.353s-1.03,2.153-1.05,3.755v1.045c0,1.634,0.343,2.919,1.03,3.853s1.632,1.401,2.837,1.401
			c1.211,0,2.148-0.44,2.813-1.323s1.006-2.146,1.025-3.794V111.763z"/>
		<path class="st3" d="M73.954,105.112v9.668c-0.006,1.341-0.428,2.438-1.265,3.291s-1.971,1.331-3.403,1.436l-0.498,0.02
			c-1.556,0-2.796-0.42-3.721-1.26s-1.393-1.995-1.406-3.467v-9.688h1.855v9.629c0,1.028,0.283,1.827,0.85,2.397
			s1.374,0.854,2.422,0.854c1.061,0,1.874-0.283,2.437-0.85s0.845-1.364,0.845-2.393v-9.639H73.954z"/>
		<path class="st3" d="M87.841,119.331h-1.885l-7.158-10.957v10.957h-1.885v-14.219h1.885l7.178,11.006v-11.006h1.865V119.331z"/>
		<path class="st3" d="M101.63,114.819c-0.176,1.504-0.731,2.665-1.665,3.481s-2.176,1.226-3.726,1.226
			c-1.68,0-3.026-0.603-4.038-1.807s-1.519-2.815-1.519-4.834v-1.367c0-1.321,0.235-2.483,0.708-3.486s1.141-1.772,2.007-2.31
			s1.868-0.806,3.008-0.806c1.511,0,2.722,0.421,3.633,1.265s1.442,2.01,1.592,3.501h-1.885c-0.163-1.136-0.517-1.959-1.06-2.468
			c-0.543-0.51-1.304-0.765-2.28-0.765c-1.198,0-2.138,0.442-2.817,1.329s-1.021,2.146-1.021,3.783v1.377
			c0,1.545,0.322,2.773,0.967,3.686s1.546,1.368,2.705,1.368c1.042,0,1.841-0.235,2.397-0.708s0.926-1.294,1.108-2.466H101.63z"/>
		<path class="st3" d="M112.226,112.759h-6.162v5.039h7.158v1.533h-9.033v-14.219h8.936v1.533h-7.061v4.58h6.162V112.759z"/>
	</g>
</g>
</svg>
