<?xml version="1.0" encoding="iso-8859-1"?>
<!-- Generator: Adobe Illustrator 15.1.0, SVG Export Plug-In . SVG Version: 6.00 Build 0)  -->
<!DOCTYPE svg PUBLIC "-//W3C//DTD SVG 1.1//EN" "http://www.w3.org/Graphics/SVG/1.1/DTD/svg11.dtd">
<svg version="1.1" id="Layer_1" xmlns="http://www.w3.org/2000/svg" xmlns:xlink="http://www.w3.org/1999/xlink" x="0px" y="0px"
	 width="150px" height="150px" viewBox="0 0 150 150" style="enable-background:new 0 0 150 150;" xml:space="preserve">
<style type="text/css">
<![CDATA[
	.st0{fill:#4D4D4F;}
	.st1{fill:#808285;}
	.st2{fill:#C4C6C8;}
	.st3{fill:#FFFFFF;}
]]>
</style>
<g id="Leaf">
	<path id="Leaf-Detail" class="st2" d="M77.608,56.258l3.104,0.211c0.623,0.042,1.093,0.582,1.051,1.205
		c-0.041,0.596-0.537,1.053-1.127,1.053c-0.025,0-0.052-0.001-0.078-0.002l-5.551-0.378c-2.989,2.455-5.627,4.887-7.931,7.271
		l11.525,1.668c0.617,0.089,1.045,0.663,0.956,1.28c-0.081,0.563-0.564,0.969-1.117,0.969c-0.054,0-0.108-0.004-0.163-0.012
		L65.2,67.629C53.534,80.502,51.18,91.12,51.147,91.274c-0.11,0.534-0.582,0.901-1.106,0.901c-0.075,0-0.152-0.007-0.229-0.023
		c-0.61-0.124-1.004-0.721-0.88-1.332c0.114-0.562,1.88-8.66,9.959-19.273l-2.99-9.759c-0.183-0.597,0.152-1.229,0.75-1.412
		c0.598-0.184,1.229,0.153,1.411,0.75l2.531,8.266c2.484-3.037,5.481-6.241,9.09-9.506l-1.958-5.79
		c-0.2-0.591,0.117-1.233,0.709-1.433c0.593-0.199,1.232,0.118,1.433,0.709l1.654,4.893c4.211-3.625,9.188-7.301,15.065-10.885
		c0.529-0.325,1.228-0.157,1.553,0.377c0.325,0.533,0.157,1.229-0.376,1.554C84.016,51.595,80.643,53.925,77.608,56.258"/>
	<path id="Leaf-Border" class="st2" d="M72.225,88.393c-9.676,0-17.66-6.418-17.995-6.691l-0.222-0.219
		c-0.155-0.182-15.183-18.307-0.726-33.033c8.955-9.121,23.279-11.035,33.721-11.035c8.174,0,14.256,1.14,14.511,1.189l2.465,0.47
		l-1.354,2.111C96.968,50,95.938,57.038,95.031,63.247c-0.943,6.444-1.834,12.531-7.762,18.569
		C82.986,86.18,77.924,88.393,72.225,88.393z M56.49,79.165c0.982,0.756,7.878,5.837,15.734,5.837c4.756,0,9.003-1.872,12.626-5.563
		c5.152-5.248,5.89-10.294,6.824-16.683c0.883-6.03,1.872-12.8,6.748-21.199c-2.469-0.328-6.593-0.752-11.42-0.752
		c-9.792,0-23.171,1.738-31.302,10.019C43.832,62.916,55.165,77.543,56.49,79.165z"/>
</g>
<g id="Badge-Generic_4_">
	<path id="Banner-Back-Right_4_" class="st1" d="M146.734,89.677c-15.058,4.841-29.859,2.755-29.859,2.755v26.1
		c0,0,20.576,0,30.625-5.512c-5.615-4.104-9.475-8.916-9.475-8.916S143.575,98.346,146.734,89.677z"/>
	<path id="Banner-Back-Left_4_" class="st1" d="M3.266,89.677c9.562,3.073,19.021,3.354,24.652,3.15
		c3.236-0.117,5.207-0.396,5.207-0.396v26.1c0,0-20.576,0-30.625-5.512c5.615-4.104,9.475-8.916,9.475-8.916
		S6.424,98.346,3.266,89.677z"/>
	<polygon id="Banner-Mid-Right_4_" class="st0" points="116.875,118.531 132.188,122.702 132.188,96.6 116.875,92.432 	"/>
	<polygon id="Banner-Mid-Left_4_" class="st0" points="33.125,118.531 17.813,122.702 17.813,96.6 28.158,93.783 33.125,92.432 
		33.125,105.728 	"/>
	<path id="Ring_4_" class="st2" d="M74.999,121.933c-28.753,0-52.146-23.394-52.146-52.146c0-28.754,23.393-52.147,52.146-52.147
		s52.146,23.393,52.146,52.147C127.146,98.539,103.752,121.933,74.999,121.933z M74.999,22.403
		c-26.126,0-47.382,21.256-47.382,47.383c0,26.128,21.256,47.383,47.382,47.383c26.128,0,47.383-21.255,47.383-47.383
		C122.382,43.659,101.127,22.403,74.999,22.403z"/>
	<g id="Banner-Front_4_">
		<path class="st2" d="M17.813,96.6c0,0,28.84,2.761,57.188,2.761c26.009,0,57.188-2.761,57.188-2.761v26.103
			c0,0-34.186,2.757-57.188,2.757c-24.999,0-57.188-2.757-57.188-2.757V96.6z"/>
	</g>
	<g>
		<path class="st3" d="M44.862,112.681c0,1.394-0.234,2.608-0.703,3.647s-1.133,1.831-1.992,2.378s-1.862,0.82-3.008,0.82
			c-1.12,0-2.113-0.274-2.979-0.825s-1.538-1.334-2.017-2.354s-0.724-2.199-0.737-3.54v-1.025c0-1.367,0.238-2.575,0.713-3.623
			s1.147-1.851,2.017-2.407s1.864-0.835,2.983-0.835c1.139,0,2.144,0.274,3.013,0.825s1.538,1.348,2.007,2.393
			s0.703,2.261,0.703,3.647V112.681z M42.997,111.763c0-1.687-0.338-2.979-1.016-3.882s-1.625-1.353-2.842-1.353
			c-1.185,0-2.118,0.45-2.798,1.353s-1.03,2.153-1.05,3.755v1.045c0,1.634,0.343,2.919,1.03,3.853s1.632,1.401,2.837,1.401
			c1.211,0,2.148-0.44,2.813-1.323s1.006-2.146,1.025-3.794V111.763z"/>
		<path class="st3" d="M52.89,113.579h-3.34v5.752h-1.885v-14.219h4.707c1.602,0,2.833,0.364,3.696,1.094s1.294,1.79,1.294,3.184
			c0,0.886-0.239,1.657-0.718,2.314s-1.144,1.149-1.997,1.475l3.34,6.035v0.117h-2.012L52.89,113.579z M49.55,112.046h2.881
			c0.931,0,1.671-0.241,2.222-0.724s0.825-1.129,0.825-1.938c0-0.881-0.262-1.555-0.786-2.025c-0.524-0.469-1.281-0.707-2.271-0.714
			H49.55V112.046z"/>
		<path class="st3" d="M70.487,117.466c-0.482,0.69-1.154,1.206-2.017,1.548s-1.867,0.513-3.013,0.513
			c-1.159,0-2.188-0.272-3.086-0.815s-1.593-1.316-2.085-2.319s-0.744-2.165-0.757-3.486v-1.24c0-2.142,0.5-3.802,1.499-4.98
			s2.404-1.768,4.214-1.768c1.484,0,2.679,0.38,3.584,1.138s1.458,1.834,1.66,3.228h-1.875c-0.352-1.888-1.471-2.832-3.359-2.832
			c-1.256,0-2.208,0.441-2.856,1.325c-0.648,0.883-0.975,2.161-0.981,3.836v1.162c0,1.597,0.365,2.865,1.094,3.807
			c0.729,0.942,1.715,1.413,2.959,1.413c0.703,0,1.318-0.077,1.846-0.233s0.963-0.42,1.309-0.789v-3.187h-3.291v-1.533h5.156
			V117.466z"/>
		<path class="st3" d="M81.464,115.61h-5.957l-1.338,3.721h-1.934l5.43-14.219h1.641l5.439,14.219h-1.924L81.464,115.61z
			 M76.073,114.077h4.834l-2.422-6.65L76.073,114.077z"/>
		<path class="st3" d="M97.587,119.331h-1.885l-7.158-10.957v10.957h-1.885v-14.219h1.885l7.178,11.006v-11.006h1.865V119.331z"/>
		<path class="st3" d="M102.929,119.331h-1.875v-14.219h1.875V119.331z"/>
		<path class="st3" d="M116.815,114.819c-0.176,1.504-0.731,2.665-1.665,3.481s-2.176,1.226-3.726,1.226
			c-1.68,0-3.026-0.603-4.038-1.807s-1.519-2.815-1.519-4.834v-1.367c0-1.321,0.235-2.483,0.708-3.486s1.141-1.772,2.007-2.31
			s1.868-0.806,3.008-0.806c1.511,0,2.722,0.421,3.633,1.265s1.442,2.01,1.592,3.501h-1.885c-0.163-1.136-0.517-1.959-1.06-2.468
			c-0.543-0.51-1.304-0.765-2.28-0.765c-1.198,0-2.138,0.442-2.817,1.329s-1.021,2.146-1.021,3.783v1.377
			c0,1.545,0.322,2.773,0.967,3.686s1.546,1.368,2.705,1.368c1.042,0,1.841-0.235,2.397-0.708s0.926-1.294,1.108-2.466H116.815z"/>
	</g>
</g>
</svg>
