<?xml version="1.0" encoding="iso-8859-1"?>
<!-- Generator: Adobe Illustrator 15.1.0, SVG Export Plug-In . SVG Version: 6.00 Build 0)  -->
<!DOCTYPE svg PUBLIC "-//W3C//DTD SVG 1.1//EN" "http://www.w3.org/Graphics/SVG/1.1/DTD/svg11.dtd">
<svg version="1.1" id="Layer_1" xmlns="http://www.w3.org/2000/svg" xmlns:xlink="http://www.w3.org/1999/xlink" x="0px" y="0px"
	 width="150px" height="150px" viewBox="0 0 150 150" style="enable-background:new 0 0 150 150;" xml:space="preserve">
<style type="text/css">
<![CDATA[
	.st0{fill:#4D4D4F;}
	.st1{fill:#808285;}
	.st2{fill:#C4C6C8;}
	.st3{fill:#FFFFFF;}
]]>
</style>
<g id="Post">
	<rect id="Post-Line-4" x="51.981" y="91.03" class="st2" width="45.203" height="2.29"/>
	<rect id="Post-Line-3" x="51.981" y="80.957" class="st2" width="34.441" height="2.289"/>
	<rect id="Post-Line-2" x="51.981" y="70.884" class="st2" width="42.39" height="2.287"/>
	<rect id="Post-Line-1" x="51.981" y="60.81" class="st2" width="17.812" height="2.288"/>
	<path id="Post-Header" class="st2" d="M47.947,54.85c0,0,0-11.535,0-14.674c0-0.271,0.218-0.49,0.488-0.49
		c13.281,0,39.848,0,53.129,0c0.271,0,0.488,0.219,0.488,0.49c0,3.057,0,11.617,0,14.674H47.947z M56.149,43.1
		c-2.302,0-4.168,1.868-4.168,4.169c0,2.3,1.866,4.168,4.168,4.168s4.169-1.868,4.169-4.168C60.318,44.968,58.451,43.1,56.149,43.1z
		"/>
	<path id="Post-Frame" class="st2" d="M101.564,103.302H48.436c-0.556,0-1.007-0.451-1.007-1.007V40.176
		c0-0.556,0.451-1.007,1.007-1.007h53.129c0.556,0,1.007,0.452,1.007,1.007v62.119C102.571,102.851,102.12,103.302,101.564,103.302z
		 M100.66,41.2l-51.35,0.027l0.028,60.044l51.321-0.028V41.2z"/>
</g>
<g id="Badge-Generic_1_">
	<path id="Banner-Back-Right_1_" class="st1" d="M146.734,89.677c-15.058,4.841-29.859,2.755-29.859,2.755v26.1
		c0,0,20.576,0,30.625-5.512c-5.615-4.104-9.475-8.916-9.475-8.916S143.575,98.346,146.734,89.677z"/>
	<path id="Banner-Back-Left_1_" class="st1" d="M3.266,89.677c9.562,3.073,19.021,3.354,24.652,3.15
		c3.236-0.117,5.207-0.396,5.207-0.396v26.1c0,0-20.576,0-30.625-5.512c5.615-4.104,9.475-8.916,9.475-8.916
		S6.424,98.346,3.266,89.677z"/>
	<polygon id="Banner-Mid-Right_1_" class="st0" points="116.875,118.531 132.188,122.702 132.188,96.6 116.875,92.432 	"/>
	<polygon id="Banner-Mid-Left_1_" class="st0" points="33.125,118.531 17.813,122.702 17.813,96.6 28.158,93.783 33.125,92.432 
		33.125,105.728 	"/>
	<path id="Ring_1_" class="st2" d="M74.999,121.933c-28.753,0-52.146-23.394-52.146-52.146c0-28.754,23.393-52.147,52.146-52.147
		s52.146,23.393,52.146,52.147C127.146,98.539,103.752,121.933,74.999,121.933z M74.999,22.403
		c-26.126,0-47.382,21.256-47.382,47.383c0,26.128,21.256,47.383,47.382,47.383c26.128,0,47.383-21.255,47.383-47.383
		C122.382,43.659,101.127,22.403,74.999,22.403z"/>
	<g id="Banner-Front_1_">
		<path class="st2" d="M17.813,96.6c0,0,28.84,2.761,57.188,2.761c26.009,0,57.188-2.761,57.188-2.761v26.103
			c0,0-34.186,2.757-57.188,2.757c-24.999,0-57.188-2.757-57.188-2.757V96.6z"/>
	</g>
	<g>
		<path class="st3" d="M47.587,113.765v5.566h-1.875v-14.219h5.244c1.556,0,2.775,0.397,3.657,1.191s1.323,1.846,1.323,3.154
			c0,1.38-0.431,2.442-1.294,3.188s-2.098,1.118-3.706,1.118H47.587z M47.587,112.231h3.369c1.002,0,1.771-0.236,2.305-0.71
			c0.534-0.473,0.801-1.155,0.801-2.049c0-0.848-0.267-1.525-0.801-2.035c-0.534-0.508-1.266-0.772-2.197-0.792h-3.477V112.231z"/>
		<path class="st3" d="M69.267,112.681c0,1.394-0.234,2.608-0.703,3.647s-1.133,1.831-1.992,2.378s-1.862,0.82-3.008,0.82
			c-1.12,0-2.113-0.274-2.979-0.825s-1.538-1.334-2.017-2.354s-0.724-2.199-0.737-3.54v-1.025c0-1.367,0.238-2.575,0.713-3.623
			s1.147-1.851,2.017-2.407s1.864-0.835,2.983-0.835c1.139,0,2.144,0.274,3.013,0.825s1.538,1.348,2.007,2.393
			s0.703,2.261,0.703,3.647V112.681z M67.401,111.763c0-1.687-0.338-2.979-1.016-3.882s-1.625-1.353-2.842-1.353
			c-1.185,0-2.118,0.45-2.798,1.353s-1.03,2.153-1.05,3.755v1.045c0,1.634,0.343,2.919,1.03,3.853s1.632,1.401,2.837,1.401
			c1.211,0,2.148-0.44,2.813-1.323s1.006-2.146,1.025-3.794V111.763z"/>
		<path class="st3" d="M76.269,112.993c-1.608-0.462-2.778-1.03-3.511-1.704s-1.099-1.506-1.099-2.495
			c0-1.12,0.448-2.046,1.343-2.778s2.059-1.099,3.491-1.099c0.977,0,1.847,0.188,2.612,0.566s1.357,0.898,1.777,1.563
			s0.63,1.39,0.63,2.178h-1.885c0-0.862-0.273-1.54-0.82-2.034c-0.547-0.492-1.318-0.739-2.314-0.739
			c-0.924,0-1.646,0.204-2.163,0.612c-0.518,0.406-0.776,0.973-0.776,1.696c0,0.581,0.246,1.071,0.737,1.473s1.328,0.769,2.51,1.101
			s2.105,0.699,2.773,1.1s1.162,0.867,1.484,1.401s0.483,1.162,0.483,1.885c0,1.152-0.449,2.075-1.348,2.769s-2.1,1.04-3.604,1.04
			c-0.977,0-1.888-0.187-2.734-0.562s-1.499-0.887-1.958-1.538s-0.688-1.39-0.688-2.217h1.885c0,0.859,0.317,1.538,0.952,2.036
			s1.483,0.747,2.544,0.747c0.989,0,1.748-0.202,2.275-0.605s0.791-0.954,0.791-1.65s-0.244-1.235-0.732-1.616
			S77.551,113.364,76.269,112.993z"/>
		<path class="st3" d="M93.769,106.646h-4.57v12.686h-1.865v-12.686h-4.561v-1.533h10.996V106.646z"/>
		<path class="st3" d="M99.911,112.993c-1.608-0.462-2.778-1.03-3.511-1.704s-1.099-1.506-1.099-2.495
			c0-1.12,0.448-2.046,1.343-2.778s2.059-1.099,3.491-1.099c0.977,0,1.847,0.188,2.612,0.566s1.357,0.898,1.777,1.563
			s0.63,1.39,0.63,2.178h-1.885c0-0.862-0.273-1.54-0.82-2.034c-0.547-0.492-1.318-0.739-2.314-0.739
			c-0.925,0-1.646,0.204-2.163,0.612c-0.518,0.406-0.776,0.973-0.776,1.696c0,0.581,0.245,1.071,0.737,1.473s1.328,0.769,2.51,1.101
			s2.105,0.699,2.773,1.1s1.162,0.867,1.484,1.401s0.483,1.162,0.483,1.885c0,1.152-0.449,2.075-1.348,2.769s-2.1,1.04-3.604,1.04
			c-0.977,0-1.888-0.187-2.734-0.562s-1.499-0.887-1.958-1.538s-0.688-1.39-0.688-2.217h1.885c0,0.859,0.317,1.538,0.952,2.036
			s1.482,0.747,2.544,0.747c0.989,0,1.748-0.202,2.275-0.605s0.791-0.954,0.791-1.65s-0.244-1.235-0.732-1.616
			S101.193,113.364,99.911,112.993z"/>
	</g>
</g>
</svg>
