<?xml version="1.0" encoding="iso-8859-1"?>
<!-- Generator: Adobe Illustrator 15.1.0, SVG Export Plug-In . SVG Version: 6.00 Build 0)  -->
<!DOCTYPE svg PUBLIC "-//W3C//DTD SVG 1.1//EN" "http://www.w3.org/Graphics/SVG/1.1/DTD/svg11.dtd">
<svg version="1.1" id="Layer_1" xmlns="http://www.w3.org/2000/svg" xmlns:xlink="http://www.w3.org/1999/xlink" x="0px" y="0px"
	 width="150px" height="150px" viewBox="0 0 150 150" style="enable-background:new 0 0 150 150;" xml:space="preserve">
<style type="text/css">
<![CDATA[
	.st0{fill:#4D4D4F;}
	.st1{fill:#808285;}
	.st2{fill:#C4C6C8;}
	.st3{fill:#FFFFFF;}
]]>
</style>
<path id="SEO-Trophy" class="st2" d="M64.964,116.661c-0.339-0.21,4.593-20.891,0.001-23.924c-3.269-2.159-6.425-4.35-7.777-5.6
	c-0.955-0.883-1.843-2.149-2.639-3.764c-4.158-1.524-9.386-3.794-11.173-6.083c-3.284-4.208-11.735-22.987-5.448-28.805
	c2.036-1.885,6.954-2.586,10.926-2.837c-0.063-3.091-0.041-5.069-0.041-5.09l0.006-0.55h52.363l0.006,0.55
	c0,0.021,0.022,1.999-0.041,5.09c3.972,0.25,8.89,0.952,10.926,2.837c6.287,5.817-2.164,24.596-5.448,28.804
	c-1.788,2.289-7.017,4.559-11.175,6.083c-0.793,1.611-1.68,2.88-2.636,3.764c-1.354,1.25-4.511,3.441-7.779,5.601
	c-4.592,3.033,0.339,23.713,0,23.923H64.964z M58.589,85.682C61.372,88.303,73.035,95.53,75,96.748
	c1.965-1.218,13.603-8.472,16.412-11.066c0.855-0.793,1.922-2.01,2.592-3.694c0,0,9.336-4.06,10.577-5.651
	c2.831-3.63,10.745-21.286,5.359-26.268c-1.416-1.311-5.096-2.19-10.361-2.478l-0.518-0.028l0.012-0.519
	c0.052-2.299,0.057-4.027,0.054-4.848H50.872c-0.002,0.821,0.003,2.548,0.055,4.848l0.012,0.519L50.42,47.59
	c-5.265,0.287-8.944,1.167-10.36,2.477c-5.386,4.983,2.528,22.639,5.359,26.269c1.241,1.592,10.599,5.731,10.599,5.731
	S56.787,83.985,58.589,85.682z M95.404,77.976l0.293-1.067c2.11-7.7,2.926-18.163,3.236-25.586l0.023-0.543l0.545,0.032
	c3.203,0.188,7.288,0.723,8.255,1.614c2.773,2.568-1.94,17.102-5.71,21.934c-0.76,0.973-3.478,2.268-5.622,3.182L95.404,77.976z
	 M100.271,53.438c-0.276,6.201-0.951,14.619-2.593,21.154c2.267-1.02,3.379-1.749,3.659-2.111
	c3.353-4.296,6.781-16.347,5.094-17.908C106.075,54.243,103.937,53.688,100.271,53.438z M54.596,77.976l-1.021-0.435
	c-2.145-0.914-4.862-2.209-5.622-3.182c-3.771-4.832-8.483-19.365-5.711-21.932c0.968-0.893,5.053-1.428,8.256-1.616l0.545-0.032
	l0.023,0.543c0.311,7.423,1.126,17.886,3.236,25.586L54.596,77.976z M49.729,53.438c-3.667,0.25-5.805,0.806-6.163,1.135
	c-1.685,1.56,1.744,13.611,5.097,17.907c0.28,0.362,1.392,1.092,3.659,2.111C50.681,68.057,50.006,59.638,49.729,53.438z"/>
<text class="seo-number" x="58" y="72" font-size="17"></text>
<g id="Badge-Generic_5_">
	<path id="Banner-Back-Right_5_" class="st1" d="M146.734,89.677c-15.058,4.841-29.859,2.755-29.859,2.755v26.1
		c0,0,20.576,0,30.625-5.512c-5.615-4.104-9.475-8.916-9.475-8.916S143.575,98.346,146.734,89.677z"/>
	<path id="Banner-Back-Left_5_" class="st1" d="M3.266,89.677c9.562,3.073,19.021,3.354,24.652,3.15
		c3.236-0.117,5.207-0.396,5.207-0.396v26.1c0,0-20.576,0-30.625-5.512c5.615-4.104,9.475-8.916,9.475-8.916
		S6.424,98.346,3.266,89.677z"/>
	<polygon id="Banner-Mid-Right_5_" class="st0" points="116.875,118.531 132.188,122.702 132.188,96.6 116.875,92.432 	"/>
	<polygon id="Banner-Mid-Left_5_" class="st0" points="33.125,118.531 17.813,122.702 17.813,96.6 28.158,93.783 33.125,92.432
		33.125,105.728 	"/>
	<path id="Ring_5_" class="st2" d="M74.999,121.933c-28.753,0-52.146-23.394-52.146-52.146c0-28.754,23.393-52.147,52.146-52.147
		s52.146,23.393,52.146,52.147C127.146,98.539,103.752,121.933,74.999,121.933z M74.999,22.403
		c-26.126,0-47.382,21.256-47.382,47.383c0,26.128,21.256,47.383,47.382,47.383c26.128,0,47.383-21.255,47.383-47.383
		C122.382,43.659,101.127,22.403,74.999,22.403z"/>
	<g id="Banner-Front_5_">
		<path class="st2" d="M17.813,96.6c0,0,28.84,2.761,57.188,2.761c26.009,0,57.188-2.761,57.188-2.761v26.103
			c0,0-34.186,2.757-57.188,2.757c-24.999,0-57.188-2.757-57.188-2.757V96.6z"/>
	</g>
	<g>
		<path class="st3" d="M62.348,112.993c-1.608-0.462-2.778-1.03-3.511-1.704s-1.099-1.506-1.099-2.495
			c0-1.12,0.448-2.046,1.343-2.778s2.059-1.099,3.491-1.099c0.977,0,1.847,0.188,2.612,0.566s1.357,0.898,1.777,1.563
			s0.63,1.39,0.63,2.178h-1.885c0-0.862-0.273-1.54-0.82-2.034c-0.547-0.492-1.318-0.739-2.314-0.739
			c-0.924,0-1.646,0.204-2.163,0.612c-0.518,0.406-0.776,0.973-0.776,1.696c0,0.581,0.246,1.071,0.737,1.473s1.328,0.769,2.51,1.101
			s2.106,0.699,2.773,1.1s1.162,0.867,1.484,1.401s0.483,1.162,0.483,1.885c0,1.152-0.449,2.075-1.348,2.769s-2.1,1.04-3.604,1.04
			c-0.977,0-1.888-0.187-2.734-0.562s-1.499-0.887-1.958-1.538s-0.688-1.39-0.688-2.217h1.885c0,0.859,0.317,1.538,0.952,2.036
			s1.483,0.747,2.544,0.747c0.99,0,1.748-0.202,2.275-0.605s0.791-0.954,0.791-1.65s-0.244-1.235-0.732-1.616
			S63.63,113.364,62.348,112.993z"/>
		<path class="st3" d="M78.061,112.759h-6.162v5.039h7.158v1.533h-9.033v-14.219h8.936v1.533h-7.061v4.58h6.162V112.759z"/>
		<path class="st3" d="M92.328,112.681c0,1.394-0.234,2.608-0.703,3.647s-1.133,1.831-1.992,2.378s-1.861,0.82-3.008,0.82
			c-1.119,0-2.113-0.274-2.979-0.825s-1.538-1.334-2.017-2.354s-0.724-2.199-0.737-3.54v-1.025c0-1.367,0.238-2.575,0.713-3.623
			s1.147-1.851,2.017-2.407s1.864-0.835,2.983-0.835c1.139,0,2.144,0.274,3.013,0.825s1.538,1.348,2.007,2.393
			s0.703,2.261,0.703,3.647V112.681z M90.463,111.763c0-1.687-0.338-2.979-1.016-3.882s-1.625-1.353-2.842-1.353
			c-1.186,0-2.117,0.45-2.798,1.353s-1.03,2.153-1.05,3.755v1.045c0,1.634,0.344,2.919,1.03,3.853s1.632,1.401,2.837,1.401
			c1.211,0,2.148-0.44,2.813-1.323s1.006-2.146,1.025-3.794V111.763z"/>
	</g>
</g>
</svg>
