<?xml version="1.0" encoding="iso-8859-1"?>
<!-- Generator: Adobe Illustrator 15.1.0, SVG Export Plug-In . SVG Version: 6.00 Build 0)  -->
<!DOCTYPE svg PUBLIC "-//W3C//DTD SVG 1.1//EN" "http://www.w3.org/Graphics/SVG/1.1/DTD/svg11.dtd">
<svg version="1.1" id="Layer_1" xmlns="http://www.w3.org/2000/svg" xmlns:xlink="http://www.w3.org/1999/xlink" x="0px" y="0px"
	 width="150px" height="150px" viewBox="0 0 150 150" style="enable-background:new 0 0 150 150;" xml:space="preserve">
<style type="text/css">
<![CDATA[
	.st0{fill:#4D4D4F;}
	.st1{fill:#808285;}
	.st2{fill:#C4C6C8;}
	.st3{fill:#FFFFFF;}
]]>
</style>
<path id="Shares" class="st2" d="M79.95,74.856c2-2.57,5.093-4.19,8.596-4.19c6.018,0,10.913,4.894,10.913,10.91
	c0,6.019-4.896,10.915-10.913,10.915c-6.021,0-10.92-4.896-10.92-10.915c0-1.35,0.247-2.645,0.697-3.838l-14.511-8.15
	c-1.999,2.548-5.107,4.19-8.59,4.19c-6.019,0-10.916-4.895-10.916-10.912c0-6.018,4.897-10.914,10.916-10.914
	c3.488,0,6.6,1.645,8.597,4.199l14.547-8.048c-0.478-1.226-0.74-2.559-0.74-3.952c0-6.017,4.899-10.912,10.92-10.912
	c6.018,0,10.913,4.895,10.913,10.912c0,6.018-4.896,10.914-10.913,10.914c-3.443,0-6.52-1.601-8.523-4.098l-14.58,8.069
	c0.448,1.191,0.692,2.482,0.692,3.829c0,1.351-0.246,2.644-0.696,3.839L79.95,74.856z M88.543,37.646
	c-3.592,0-6.504,2.911-6.504,6.504c0,3.592,2.912,6.503,6.504,6.503s6.504-2.911,6.504-6.503
	C95.047,40.558,92.135,37.646,88.543,37.646z M55.14,56.362c-3.592,0-6.503,2.912-6.503,6.504s2.911,6.504,6.503,6.504
	c3.593,0,6.504-2.912,6.504-6.504S58.732,56.362,55.14,56.362z M88.543,75.115c-3.592,0-6.504,2.911-6.504,6.504
	c0,3.591,2.912,6.503,6.504,6.503s6.504-2.912,6.504-6.503C95.047,78.025,92.135,75.115,88.543,75.115z"/>
<g id="Badge-Generic_2_">
	<path id="Banner-Back-Right_2_" class="st1" d="M146.734,89.677c-15.058,4.841-29.859,2.755-29.859,2.755v26.1
		c0,0,20.576,0,30.625-5.512c-5.615-4.104-9.475-8.916-9.475-8.916S143.575,98.346,146.734,89.677z"/>
	<path id="Banner-Back-Left_2_" class="st1" d="M3.266,89.677c9.562,3.073,19.021,3.354,24.652,3.15
		c3.236-0.117,5.207-0.396,5.207-0.396v26.1c0,0-20.576,0-30.625-5.512c5.615-4.104,9.475-8.916,9.475-8.916
		S6.424,98.346,3.266,89.677z"/>
	<polygon id="Banner-Mid-Right_2_" class="st0" points="116.875,118.531 132.188,122.702 132.188,96.6 116.875,92.432 	"/>
	<polygon id="Banner-Mid-Left_2_" class="st0" points="33.125,118.531 17.813,122.702 17.813,96.6 28.158,93.783 33.125,92.432 
		33.125,105.728 	"/>
	<path id="Ring_2_" class="st2" d="M74.999,121.933c-28.753,0-52.146-23.394-52.146-52.146c0-28.754,23.393-52.147,52.146-52.147
		s52.146,23.393,52.146,52.147C127.146,98.539,103.752,121.933,74.999,121.933z M74.999,22.403
		c-26.126,0-47.382,21.256-47.382,47.383c0,26.128,21.256,47.383,47.382,47.383c26.128,0,47.383-21.255,47.383-47.383
		C122.382,43.659,101.127,22.403,74.999,22.403z"/>
	<g id="Banner-Front_2_">
		<path class="st2" d="M17.813,96.6c0,0,28.84,2.761,57.188,2.761c26.009,0,57.188-2.761,57.188-2.761v26.103
			c0,0-34.186,2.757-57.188,2.757c-24.999,0-57.188-2.757-57.188-2.757V96.6z"/>
	</g>
	<g>
		<path class="st3" d="M43.393,112.993c-1.608-0.462-2.778-1.03-3.511-1.704s-1.099-1.506-1.099-2.495
			c0-1.12,0.448-2.046,1.343-2.778s2.059-1.099,3.491-1.099c0.977,0,1.847,0.188,2.612,0.566s1.357,0.898,1.777,1.563
			s0.63,1.39,0.63,2.178h-1.885c0-0.862-0.273-1.54-0.82-2.034c-0.547-0.492-1.318-0.739-2.314-0.739
			c-0.924,0-1.646,0.204-2.163,0.612c-0.518,0.406-0.776,0.973-0.776,1.696c0,0.581,0.246,1.071,0.737,1.473s1.328,0.769,2.51,1.101
			s2.106,0.699,2.773,1.1s1.162,0.867,1.484,1.401s0.483,1.162,0.483,1.885c0,1.152-0.449,2.075-1.348,2.769s-2.1,1.04-3.604,1.04
			c-0.977,0-1.888-0.187-2.734-0.562s-1.499-0.887-1.958-1.538s-0.688-1.39-0.688-2.217h1.885c0,0.859,0.317,1.538,0.952,2.036
			s1.483,0.747,2.544,0.747c0.99,0,1.748-0.202,2.275-0.605s0.791-0.954,0.791-1.65s-0.244-1.235-0.732-1.616
			S44.675,113.364,43.393,112.993z"/>
		<path class="st3" d="M61.996,119.331h-1.885v-6.572h-7.168v6.572h-1.875v-14.219h1.875v6.113h7.168v-6.113h1.885V119.331z"/>
		<path class="st3" d="M73.354,115.61h-5.957l-1.338,3.721h-1.934l5.43-14.219h1.641l5.439,14.219h-1.924L73.354,115.61z
			 M67.963,114.077h4.834l-2.422-6.65L67.963,114.077z"/>
		<path class="st3" d="M83.764,113.579h-3.34v5.752h-1.885v-14.219h4.707c1.602,0,2.834,0.364,3.696,1.094s1.294,1.79,1.294,3.184
			c0,0.886-0.239,1.657-0.718,2.314s-1.144,1.149-1.997,1.475l3.34,6.035v0.117H86.85L83.764,113.579z M80.424,112.046h2.881
			c0.932,0,1.672-0.241,2.222-0.724s0.825-1.129,0.825-1.938c0-0.881-0.262-1.555-0.786-2.025c-0.524-0.469-1.28-0.707-2.271-0.714
			h-2.871V112.046z"/>
		<path class="st3" d="M98.9,112.759h-6.162v5.039h7.158v1.533h-9.033v-14.219h8.936v1.533h-7.061v4.58H98.9V112.759z"/>
		<path class="st3" d="M106.42,112.993c-1.607-0.462-2.778-1.03-3.511-1.704s-1.099-1.506-1.099-2.495
			c0-1.12,0.447-2.046,1.343-2.778s2.06-1.099,3.491-1.099c0.977,0,1.848,0.188,2.612,0.566s1.357,0.898,1.777,1.563
			s0.63,1.39,0.63,2.178h-1.885c0-0.862-0.273-1.54-0.82-2.034c-0.547-0.492-1.318-0.739-2.314-0.739
			c-0.924,0-1.646,0.204-2.163,0.612c-0.518,0.406-0.776,0.973-0.776,1.696c0,0.581,0.246,1.071,0.737,1.473s1.328,0.769,2.51,1.101
			s2.106,0.699,2.773,1.1s1.162,0.867,1.484,1.401s0.483,1.162,0.483,1.885c0,1.152-0.449,2.075-1.348,2.769s-2.1,1.04-3.604,1.04
			c-0.977,0-1.889-0.187-2.734-0.562s-1.499-0.887-1.958-1.538s-0.688-1.39-0.688-2.217h1.885c0,0.859,0.317,1.538,0.952,2.036
			s1.483,0.747,2.544,0.747c0.99,0,1.748-0.202,2.275-0.605s0.791-0.954,0.791-1.65s-0.244-1.235-0.732-1.616
			S107.703,113.364,106.42,112.993z"/>
	</g>
</g>
</svg>
