<?xml version="1.0" encoding="iso-8859-1"?>
<!-- Generator: Adobe Illustrator 15.1.0, SVG Export Plug-In . SVG Version: 6.00 Build 0)  -->
<!DOCTYPE svg PUBLIC "-//W3C//DTD SVG 1.1//EN" "http://www.w3.org/Graphics/SVG/1.1/DTD/svg11.dtd">
<svg version="1.1" id="Layer_1" xmlns="http://www.w3.org/2000/svg" xmlns:xlink="http://www.w3.org/1999/xlink" x="0px" y="0px"
	 width="150px" height="150px" viewBox="0 0 150 150" style="enable-background:new 0 0 150 150;" xml:space="preserve">
<style type="text/css">
<![CDATA[
	.st0{fill:#4D4D4F;}
	.st1{fill:#808285;}
	.st2{fill:#C4C6C8;}
	.st3{fill:#FFFFFF;}
]]>
</style>
<g id="Badge-Generic">
	<path id="Banner-Back-Right" class="st1" d="M146.734,89.677c-15.058,4.841-29.859,2.755-29.859,2.755v26.1
		c0,0,20.576,0,30.625-5.512c-5.615-4.104-9.475-8.916-9.475-8.916S143.575,98.346,146.734,89.677z"/>
	<path id="Banner-Back-Left" class="st1" d="M3.265,89.677c9.562,3.073,19.021,3.354,24.653,3.15
		c3.236-0.117,5.207-0.396,5.207-0.396v26.1c0,0-20.576,0-30.625-5.512c5.615-4.104,9.474-8.916,9.474-8.916
		S6.424,98.346,3.265,89.677z"/>
	<polygon id="Banner-Mid-Right" class="st0" points="116.875,118.531 132.188,122.702 132.188,96.6 116.875,92.432 	"/>
	<polygon id="Banner-Mid-Left" class="st0" points="33.125,118.531 17.813,122.702 17.813,96.6 28.159,93.783 33.125,92.432 
		33.125,105.728 	"/>
	<path id="Ring" class="st2" d="M74.999,121.933c-28.753,0-52.146-23.394-52.146-52.146c0-28.754,23.393-52.147,52.146-52.147
		c28.753,0,52.146,23.393,52.146,52.147C127.146,98.539,103.752,121.933,74.999,121.933z M74.999,22.403
		c-26.126,0-47.382,21.256-47.382,47.383c0,26.128,21.255,47.383,47.382,47.383c26.128,0,47.383-21.255,47.383-47.383
		C122.382,43.659,101.127,22.403,74.999,22.403z"/>
	<g id="Banner-Front">
		<path class="st2" d="M17.813,96.6c0,0,28.84,2.761,57.188,2.761c26.009,0,57.188-2.761,57.188-2.761v26.103
			c0,0-34.186,2.757-57.188,2.757c-24.999,0-57.188-2.757-57.188-2.757V96.6z"/>
	</g>
	<g>
		<path class="st3" d="M51.786,116.841l4.063-11.729h2.051l-5.273,14.219h-1.66l-5.264-14.219h2.041L51.786,116.841z"/>
		<path class="st3" d="M61.815,119.331H59.94v-14.219h1.875V119.331z"/>
		<path class="st3" d="M73.28,112.759h-6.162v5.039h7.158v1.533h-9.033v-14.219h8.936v1.533h-7.061v4.58h6.162V112.759z"/>
		<path class="st3" d="M79.677,114.849l0.273,1.875l0.4-1.689l2.813-9.922h1.582l2.744,9.922l0.391,1.719l0.303-1.914l2.207-9.727
			h1.885l-3.447,14.219h-1.709l-2.93-10.361l-0.225-1.084l-0.225,1.084l-3.037,10.361h-1.709l-3.438-14.219h1.875L79.677,114.849z"
			/>
		<path class="st3" d="M98.544,112.993c-1.608-0.462-2.778-1.03-3.511-1.704s-1.099-1.506-1.099-2.495
			c0-1.12,0.448-2.046,1.343-2.778s2.059-1.099,3.491-1.099c0.977,0,1.847,0.188,2.612,0.566s1.357,0.898,1.777,1.563
			s0.63,1.39,0.63,2.178h-1.885c0-0.862-0.273-1.54-0.82-2.034c-0.547-0.492-1.318-0.739-2.314-0.739
			c-0.925,0-1.646,0.204-2.163,0.612c-0.518,0.406-0.776,0.973-0.776,1.696c0,0.581,0.245,1.071,0.737,1.473s1.328,0.769,2.51,1.101
			s2.105,0.699,2.773,1.1s1.162,0.867,1.484,1.401s0.483,1.162,0.483,1.885c0,1.152-0.449,2.075-1.348,2.769s-2.1,1.04-3.604,1.04
			c-0.977,0-1.888-0.187-2.734-0.562s-1.499-0.887-1.958-1.538s-0.688-1.39-0.688-2.217h1.885c0,0.859,0.317,1.538,0.952,2.036
			s1.482,0.747,2.544,0.747c0.989,0,1.748-0.202,2.275-0.605s0.791-0.954,0.791-1.65s-0.244-1.235-0.732-1.616
			S99.826,113.364,98.544,112.993z"/>
	</g>
</g>
<g id="Eye">
	<ellipse id="Eye-Inner" class="st2" cx="83.25" cy="62.632" rx="5.94" ry="11.064"/>
	<path id="Eye-Outer" class="st2" d="M83.114,83.046c2.308,1.168,4.813,2.348,7.515,3.525c1.103,0.48,1.606,1.763,1.127,2.865
		c-0.357,0.819-1.157,1.309-1.997,1.309c-0.29,0-0.586-0.06-0.869-0.182C58.717,77.416,52.66,64.058,52.417,63.496l-0.446-1.031
		l0.583-0.961c0.417-0.688,10.516-16.974,36.432-26.842c1.121-0.427,2.381,0.135,2.809,1.26c0.428,1.123-0.137,2.38-1.259,2.808
		c-2.72,1.036-5.258,2.147-7.617,3.306c4.68,3.971,7.164,11.44,7.164,20.44C90.082,71.535,87.724,79.137,83.114,83.046z
		 M80.116,81.48c3.84-3.258,6.701-11.001,6.701-19.004c0-7.933-3.12-15.522-7.02-18.83c-13.703,7.435-20.725,16.162-22.829,19.095
		C58.629,65.376,64.445,73.016,80.116,81.48L80.116,81.48z"/>
</g>
</svg>
